<svg width="98" height="69" viewBox="0 0 98 69" fill="none" xmlns="http://www.w3.org/2000/svg">
<path d="M96.965 33.9423C96.457 33.0717 95.7793 32.3092 94.9711 31.699C94.1629 31.0889 93.2402 30.643 92.2565 30.3874C89.3013 29.6804 86.2601 29.3876 83.2223 29.5175C83.822 24.7252 83.3649 19.8614 81.8824 15.26C81.3068 13.4825 80.0833 11.9796 78.4492 11.0432C76.8152 10.1067 74.8872 9.80349 73.0396 10.1923C69.8566 10.8793 66.7975 12.0397 63.967 13.6338C61.4264 8.91232 57.8885 4.78522 53.593 1.53192C52.2728 0.538183 50.659 0 48.9993 0C47.3396 0 45.7257 0.538183 44.4056 1.53192C40.1101 4.78522 36.5722 8.91232 34.0315 13.6338C31.201 12.0397 28.142 10.8793 24.959 10.1923C23.1114 9.80349 21.1834 10.1067 19.5493 11.0432C17.9153 11.9796 16.6917 13.4825 16.1161 15.26C14.6337 19.8614 14.1766 24.7252 14.7763 29.5175C11.7385 29.3876 8.69729 29.6804 5.74206 30.3874C4.75959 30.642 3.83788 31.0862 3.03008 31.6945C2.22228 32.3028 1.54437 33.0631 1.03547 33.9315C0.526564 34.7999 0.196731 35.7592 0.0649936 36.7542C-0.0667437 37.7491 0.00222181 38.76 0.267912 39.7285C1.6843 44.7584 6.01002 54.2508 19.0255 61.6632C32.0409 69.0756 42.9892 69 48.961 69H49.0376C55.0094 69 66.149 69 78.9731 61.6632C91.7971 54.3264 96.3143 44.7584 97.7307 39.7285C97.9972 38.762 98.0668 37.7528 97.9354 36.7595C97.804 35.7662 97.4741 34.8086 96.965 33.9423ZM73.5755 19.42C74.3411 22.559 74.8388 27.3997 73.0396 33.4128L72.9247 33.7532C72.0603 36.5001 70.8785 39.1396 69.4029 41.6194C68.9505 42.4404 68.452 43.2358 67.91 44.002C68.577 40.7788 68.9105 37.4969 68.9053 34.207C68.9311 30.1493 68.4162 26.1058 67.374 22.1808C69.295 20.9688 71.384 20.0388 73.5755 19.42ZM48.9993 9.5116C52.8274 12.6127 59.7179 20.2142 59.7179 34.207C59.7179 48.1998 52.7125 55.9148 48.9993 58.9403C45.286 55.9148 38.2807 48.3511 38.2807 34.207C38.2807 20.0629 45.1712 12.6127 48.9993 9.5116ZM24.4231 19.42C26.6146 20.0388 28.7035 20.9688 30.6245 22.1808C29.5823 26.1058 29.0675 30.1493 29.0933 34.207C29.0881 37.4969 29.4216 40.7788 30.0886 44.002C29.5465 43.2358 29.0481 42.4404 28.5956 41.6194C27.12 39.1396 25.9383 36.5001 25.0738 33.7532L24.959 33.4128C23.1598 27.3997 23.6574 22.559 24.4231 19.42ZM9.64669 38.8587C12.1192 38.4793 14.6351 38.4666 17.1114 38.8209C18.0699 41.3619 19.2482 43.8166 20.6333 46.1576C22.7434 49.7636 25.2885 53.1034 28.2128 56.1039C26.7071 55.4484 25.1759 54.692 23.6192 53.8348C14.738 48.7293 11.1014 42.754 9.64669 38.8587ZM74.3794 53.8348C72.8099 54.7046 71.2787 55.461 69.824 56.1039C72.7309 53.098 75.2627 49.7588 77.3653 46.1576C78.7504 43.8166 79.9287 41.3619 80.8871 38.8209C83.3634 38.4666 85.8794 38.4793 88.3519 38.8587C86.8972 42.754 83.2605 48.7293 74.3794 53.8348Z" fill="#FF7A00"/>
</svg>
