<svg width="103" height="103" viewBox="0 0 103 103" fill="none" xmlns="http://www.w3.org/2000/svg">
<path d="M72.958 23.6042V47.2084M85.833 68.6667V36.4792C85.833 32.9257 83.082 30.0417 79.4813 30.0417C77.2497 30.0417 72.958 31.3292 72.958 36.4792V23.6042C72.958 20.0507 70.2071 17.1667 66.6063 17.1667C64.4305 17.1667 60.083 18.4542 60.083 23.6042V15.0209C60.083 11.4674 57.3321 8.58337 53.7313 8.58337C50.1263 8.58337 47.208 11.4674 47.208 15.0209V23.6042C47.208 18.4542 42.9464 17.1667 40.7705 17.1667C37.1655 17.1667 34.333 20.1322 34.333 23.69V60.0834L85.833 68.6667ZM47.208 23.6042V47.2084V23.6042ZM60.083 23.6042V47.2084V23.6042Z" stroke="#FF5C00" stroke-width="2" stroke-linecap="round" stroke-linejoin="round"/>
<path d="M85.8332 68.6668C85.8332 85.8334 72.3831 94.4168 55.7915 94.4168C39.1999 94.4168 33.492 90.1251 20.617 68.6668L13.8748 57.487C11.5745 53.7618 13.4156 48.9294 17.6558 47.556C19.0422 47.1031 20.5345 47.0874 21.9301 47.5112C23.3258 47.935 24.5574 48.7777 25.458 49.925L34.3332 60.225" stroke="#FF5C00" stroke-width="2" stroke-linecap="round" stroke-linejoin="round"/>
</svg>
